<svg width="18" height="18" viewBox="0 0 18 18" fill="none" xmlns="http://www.w3.org/2000/svg">
<path d="M16.125 11.625C16.335 11.625 16.5 11.79 16.5 12V12.75C16.5 13.995 15.495 15 14.25 15C14.25 13.7625 13.2375 12.75 12 12.75C10.7625 12.75 9.75 13.7625 9.75 15H8.25C8.25 13.7625 7.2375 12.75 6 12.75C4.7625 12.75 3.75 13.7625 3.75 15C2.505 15 1.5 13.995 1.5 12.75V11.25C1.5 10.8375 1.8375 10.5 2.25 10.5H9.375C10.41 10.5 11.25 9.66 11.25 8.625V4.5C11.25 4.0875 11.5875 3.75 12 3.75H12.63C13.17 3.75 13.665 4.0425 13.935 4.5075L14.415 5.3475C14.4825 5.4675 14.3925 5.625 14.25 5.625C13.215 5.625 12.375 6.465 12.375 7.5V9.75C12.375 10.785 13.215 11.625 14.25 11.625H16.125Z" fill="#1B73EF"/>
<path d="M6 16.5C6.82843 16.5 7.5 15.8284 7.5 15C7.5 14.1716 6.82843 13.5 6 13.5C5.17157 13.5 4.5 14.1716 4.5 15C4.5 15.8284 5.17157 16.5 6 16.5Z" fill="#1B73EF"/>
<path d="M12 16.5C12.8284 16.5 13.5 15.8284 13.5 15C13.5 14.1716 12.8284 13.5 12 13.5C11.1716 13.5 10.5 14.1716 10.5 15C10.5 15.8284 11.1716 16.5 12 16.5Z" fill="#1B73EF"/>
<path d="M16.5 9.3975V10.5H14.25C13.8375 10.5 13.5 10.1625 13.5 9.75V7.5C13.5 7.0875 13.8375 6.75 14.25 6.75H15.2175L16.305 8.655C16.4325 8.88 16.5 9.135 16.5 9.3975Z" fill="#1B73EF"/>
<path d="M9.81 1.5H4.2675C2.7375 1.5 1.5 2.7375 1.5 4.2675V9.0525C1.5 9.465 1.8375 9.8025 2.25 9.8025H9.1125C9.8775 9.8025 10.5 9.18 10.5 8.415V2.19C10.5 1.8075 10.1925 1.5 9.81 1.5ZM7.5525 5.3025L5.985 6.8175C5.8725 6.9225 5.73 6.975 5.595 6.975C5.4525 6.975 5.31 6.9225 5.205 6.8175L4.4475 6.0975C4.2225 5.88 4.215 5.52 4.4325 5.295C4.6425 5.07 5.0025 5.07 5.2275 5.28L5.595 5.6325L6.7725 4.4925C6.9975 4.275 7.35 4.2825 7.5675 4.5075C7.785 4.7325 7.7775 5.085 7.5525 5.3025Z" fill="#1B73EF"/>
</svg>
