<svg width="32" height="32" viewBox="0 0 32 32" fill="none" xmlns="http://www.w3.org/2000/svg">
<path d="M25.3023 13.907C24.9209 13.907 24.6047 13.5908 24.6047 13.2094V11.3489C24.6047 8.94886 23.0512 7.39536 20.6512 7.39536H11.3488C8.94874 7.39536 7.39524 8.94886 7.39524 11.3489V13.2094C7.39524 13.5908 7.07896 13.907 6.69756 13.907C6.31616 13.907 5.99988 13.5908 5.99988 13.2094V11.3489C5.99988 8.14885 8.14873 6 11.3488 6H20.6512C23.8512 6 26 8.14885 26 11.3489V13.2094C26 13.5908 25.6837 13.907 25.3023 13.907Z" fill="white"/>
<path d="M20.6512 25.9998H11.3488C8.14873 25.9998 5.99988 23.851 5.99988 20.6509V18.7905C5.99988 18.4091 6.31616 18.0928 6.69756 18.0928C7.07896 18.0928 7.39524 18.4091 7.39524 18.7905V20.6509C7.39524 23.051 8.94874 24.6045 11.3488 24.6045H20.6512C23.0512 24.6045 24.6047 23.051 24.6047 20.6509V18.7905C24.6047 18.4091 24.9209 18.0928 25.3023 18.0928C25.6837 18.0928 26 18.4091 26 18.7905V20.6509C26 23.851 23.8512 25.9998 20.6512 25.9998Z" fill="white"/>
<path d="M20.0931 12.4744L16.5954 10.586C16.2233 10.3906 15.7861 10.3906 15.414 10.586L11.907 12.4744C11.6558 12.6139 11.4977 12.8837 11.4977 13.1813C11.4977 13.4883 11.6558 13.7581 11.907 13.8976L15.4047 15.786C15.5907 15.8883 15.7954 15.9348 16 15.9348C16.2047 15.9348 16.4093 15.8883 16.5954 15.786L20.0931 13.8976C20.3443 13.7581 20.5024 13.4883 20.5024 13.1813C20.5024 12.8837 20.3443 12.6139 20.0931 12.4744Z" fill="#17272E"/>
<path d="M14.8279 16.4368L11.5721 14.8089C11.3209 14.688 11.0325 14.6973 10.7907 14.8461C10.5581 14.9949 10.4186 15.2461 10.4186 15.5252V18.6043C10.4186 19.1345 10.7163 19.6182 11.1907 19.8508L14.4465 21.4787C14.5581 21.5345 14.6791 21.5624 14.8093 21.5624C14.9581 21.5624 15.0977 21.5252 15.2279 21.4415C15.4698 21.2927 15.6093 21.0415 15.6093 20.7624V17.6833C15.6 17.1531 15.3116 16.6787 14.8279 16.4368Z" fill="#17272E"/>
<path d="M21.2001 14.8461C20.9582 14.6973 20.6698 14.688 20.4187 14.8089L17.1628 16.4368C16.6884 16.6787 16.3907 17.1531 16.3907 17.6833V20.7624C16.3907 21.0415 16.5303 21.2927 16.7721 21.4415C16.9024 21.5252 17.0419 21.5624 17.1908 21.5624C17.3117 21.5624 17.4326 21.5345 17.5535 21.4787L20.8094 19.8508C21.2838 19.6089 21.5815 19.1345 21.5815 18.6043V15.5252C21.5815 15.2461 21.4419 14.9949 21.2001 14.8461Z" fill="#17272E"/>
</svg>
