<svg width="16" height="16" viewBox="0 0 16 16" fill="none" xmlns="http://www.w3.org/2000/svg">
<path d="M8.00008 5.33268C6.52675 5.33268 5.33341 6.52601 5.33341 7.99935C5.33341 9.47268 6.52675 10.666 8.00008 10.666C9.47341 10.666 10.6667 9.47268 10.6667 7.99935C10.6667 6.52601 9.47341 5.33268 8.00008 5.33268ZM13.9601 7.33268C13.6534 4.55268 11.4467 2.34602 8.66675 2.03935V0.666016H7.33341V2.03935C4.55341 2.34602 2.34675 4.55268 2.04008 7.33268H0.666748V8.66601H2.04008C2.34675 11.446 4.55341 13.6527 7.33341 13.9593V15.3327H8.66675V13.9593C11.4467 13.6527 13.6534 11.446 13.9601 8.66601H15.3334V7.33268H13.9601ZM8.00008 12.666C5.42008 12.666 3.33341 10.5793 3.33341 7.99935C3.33341 5.41935 5.42008 3.33268 8.00008 3.33268C10.5801 3.33268 12.6667 5.41935 12.6667 7.99935C12.6667 10.5793 10.5801 12.666 8.00008 12.666Z" fill="#17272E"/>
</svg>
