<svg width="73" height="73" viewBox="0 0 73 73" fill="none" xmlns="http://www.w3.org/2000/svg">
<circle opacity="0.1" cx="36.5" cy="36.5" r="36.5" fill="#1B73EF"/>
<path opacity="0.9" d="M23.8586 33.5625H38.1024C39.2357 33.5625 40.3226 34.0127 41.124 34.8141C41.9254 35.6154 42.3756 36.7023 42.3756 37.8357V47.8063C42.3756 48.9396 41.9254 50.0265 41.124 50.8279C40.3226 51.6293 39.2357 52.0795 38.1024 52.0795H23.8586C22.7253 52.0795 21.6384 51.6293 20.837 50.8279C20.0357 50.0265 19.5854 48.9396 19.5854 47.8063V37.8357C19.5854 36.7023 20.0357 35.6154 20.837 34.8141C21.6384 34.0127 22.7253 33.5625 23.8586 33.5625Z" fill="#1B73EF"/>
<path opacity="0.5" d="M26.7072 28.4878C26.7076 27.6438 26.9578 26.8187 27.4262 26.1166C27.8947 25.4145 28.5604 24.8667 29.3396 24.5423C30.1189 24.2179 30.9766 24.1314 31.805 24.2936C32.6333 24.4558 33.395 24.8595 33.9943 25.4539C34.5327 25.9994 34.9202 26.676 35.1139 27.4181L35.1167 27.4281C35.2221 27.7821 35.461 28.0813 35.7828 28.2626C36.1047 28.4439 36.4843 28.4931 36.8417 28.3998C37.1991 28.3064 37.5063 28.0779 37.6984 27.7624C37.8906 27.4469 37.9526 27.0691 37.8715 26.7088C37.5493 25.4755 36.9077 24.3489 36.0112 23.4426C35.0139 22.4492 33.7446 21.7734 32.3635 21.5007C30.9825 21.228 29.5516 21.3705 28.2514 21.9102C26.9513 22.45 25.8402 23.3628 25.0583 24.5334C24.2765 25.7041 23.8589 27.0801 23.8584 28.4878V33.6066H26.7072V28.4878Z" fill="#1B73EF"/>
<path d="M40.5994 22.5258V32.2247C40.5994 32.2962 40.5711 32.3647 40.5206 32.4152C40.4701 32.4658 40.4016 32.4942 40.3302 32.4942C40.2588 32.4942 40.1904 32.4658 40.1399 32.4152C40.0894 32.3647 40.061 32.2962 40.061 32.2247V22.5258C40.061 22.4543 40.0894 22.3858 40.1399 22.3353C40.1904 22.2847 40.2588 22.2563 40.3302 22.2563C40.4016 22.2563 40.4701 22.2847 40.5206 22.3353C40.5711 22.3858 40.5994 22.4543 40.5994 22.5258ZM46.6027 26.4525L44.9067 27.0048V25.2199C44.9067 25.1485 44.8783 25.0799 44.8279 25.0294C44.7774 24.9789 44.7089 24.9505 44.6375 24.9505C44.5661 24.9505 44.4976 24.9789 44.4471 25.0294C44.3967 25.0799 44.3683 25.1485 44.3683 25.2199V27.0048L42.6723 26.4525C42.6045 26.4302 42.5306 26.4357 42.4668 26.4679C42.4031 26.5001 42.3548 26.5564 42.3324 26.6243C42.3101 26.6921 42.3157 26.7661 42.3479 26.8299C42.38 26.8937 42.4362 26.9421 42.5041 26.9644L44.2 27.5167L43.1569 28.9581C43.1157 29.0158 43.0984 29.0872 43.1084 29.1574C43.1184 29.2277 43.1551 29.2913 43.2107 29.3353C43.2579 29.369 43.3142 29.3878 43.3722 29.3891C43.4146 29.3884 43.4562 29.3776 43.4936 29.3577C43.531 29.3378 43.5632 29.3093 43.5876 29.2746L44.6375 27.8333L45.6874 29.2746C45.7117 29.3093 45.7439 29.3378 45.7814 29.3577C45.8188 29.3776 45.8604 29.3884 45.9028 29.3891C45.9608 29.3878 46.017 29.369 46.0643 29.3353C46.1199 29.2913 46.1566 29.2277 46.1666 29.1574C46.1766 29.0872 46.1593 29.0158 46.1181 28.9581L45.075 27.5167L46.7709 26.9644C46.8388 26.9421 46.8949 26.8937 46.9271 26.8299C46.9593 26.7661 46.9649 26.6921 46.9426 26.6243C46.9202 26.5564 46.8719 26.5001 46.8082 26.4679C46.7444 26.4357 46.6705 26.4302 46.6027 26.4525ZM53.4001 26.6276C53.3901 26.5936 53.3734 26.5619 53.3509 26.5345C53.3284 26.5071 53.3006 26.4845 53.2692 26.4681C53.2377 26.4518 53.2033 26.4419 53.168 26.4393C53.1326 26.4366 53.0971 26.4411 53.0636 26.4525L51.3676 27.0048V25.2199C51.3676 25.1485 51.3392 25.0799 51.2887 25.0294C51.2382 24.9789 51.1698 24.9505 51.0984 24.9505C51.027 24.9505 50.9585 24.9789 50.908 25.0294C50.8575 25.0799 50.8292 25.1485 50.8292 25.2199V27.0048L49.1332 26.4525C49.0654 26.4302 48.9915 26.4357 48.9277 26.4679C48.864 26.5001 48.8156 26.5564 48.7933 26.6243C48.771 26.6921 48.7766 26.7661 48.8087 26.8299C48.8409 26.8937 48.8971 26.9421 48.9649 26.9644L50.6609 27.5167L49.6178 28.9581C49.5766 29.0158 49.5592 29.0872 49.5693 29.1574C49.5793 29.2277 49.6159 29.2913 49.6716 29.3353C49.7188 29.369 49.7751 29.3878 49.8331 29.3891C49.8755 29.3884 49.9171 29.3776 49.9545 29.3577C49.9919 29.3378 50.0241 29.3093 50.0485 29.2746L51.0984 27.8333L52.1483 29.2746C52.1726 29.3093 52.2048 29.3378 52.2423 29.3577C52.2797 29.3776 52.3213 29.3884 52.3636 29.3891C52.4217 29.3878 52.4779 29.369 52.5252 29.3353C52.5808 29.2913 52.6175 29.2277 52.6275 29.1574C52.6375 29.0872 52.6201 29.0158 52.579 28.9581L51.5358 27.5167L53.2318 26.9644C53.2652 26.9537 53.2962 26.9365 53.3228 26.9137C53.3495 26.8909 53.3713 26.8629 53.387 26.8316C53.4027 26.8002 53.4119 26.7659 53.4142 26.7309C53.4164 26.6959 53.4116 26.6608 53.4001 26.6276Z" fill="#1B73EF"/>
</svg>
