<svg width="14" height="14" viewBox="0 0 14 14" fill="none" xmlns="http://www.w3.org/2000/svg">
<g clip-path="url(#clip0_233_3788)">
<path fill-rule="evenodd" clip-rule="evenodd" d="M0 7C0 5.14348 0.737498 3.36301 2.05025 2.05025C3.36301 0.737498 5.14348 0 7 0C8.85652 0 10.637 0.737498 11.9497 2.05025C13.2625 3.36301 14 5.14348 14 7C14 8.85652 13.2625 10.637 11.9497 11.9497C10.637 13.2625 8.85652 14 7 14C5.14348 14 3.36301 13.2625 2.05025 11.9497C0.737498 10.637 0 8.85652 0 7H0ZM6.60053 9.996L10.6307 4.95787L9.90267 4.37547L6.46613 8.66973L4.032 6.6416L3.43467 7.3584L6.60053 9.99693V9.996Z" fill="#17272E"/>
</g>
<defs>
<clipPath id="clip0_233_3788">
<rect width="14" height="14" fill="white"/>
</clipPath>
</defs>
</svg>
