<svg width="18" height="18" viewBox="0 0 18 18" fill="none" xmlns="http://www.w3.org/2000/svg">
<path d="M12.5625 2.67V1.5C12.5625 1.1925 12.3075 0.9375 12 0.9375C11.6925 0.9375 11.4375 1.1925 11.4375 1.5V2.625H6.56255V1.5C6.56255 1.1925 6.30755 0.9375 6.00005 0.9375C5.69255 0.9375 5.43755 1.1925 5.43755 1.5V2.67C3.41255 2.8575 2.43005 4.065 2.28005 5.8575C2.26505 6.075 2.44505 6.255 2.65505 6.255H15.345C15.5625 6.255 15.7425 6.0675 15.72 5.8575C15.57 4.065 14.5875 2.8575 12.5625 2.67Z" fill="#17272E"/>
<path d="M15 7.37988H3C2.5875 7.37988 2.25 7.71738 2.25 8.12988V12.7499C2.25 14.9999 3.375 16.4999 6 16.4999H12C14.625 16.4999 15.75 14.9999 15.75 12.7499V8.12988C15.75 7.71738 15.4125 7.37988 15 7.37988ZM6.9075 13.6574C6.8325 13.7249 6.75 13.7774 6.66 13.8149C6.57 13.8524 6.4725 13.8749 6.375 13.8749C6.2775 13.8749 6.18 13.8524 6.09 13.8149C6 13.7774 5.9175 13.7249 5.8425 13.6574C5.7075 13.5149 5.625 13.3199 5.625 13.1249C5.625 12.9299 5.7075 12.7349 5.8425 12.5924C5.9175 12.5249 6 12.4724 6.09 12.4349C6.27 12.3599 6.48 12.3599 6.66 12.4349C6.75 12.4724 6.8325 12.5249 6.9075 12.5924C7.0425 12.7349 7.125 12.9299 7.125 13.1249C7.125 13.3199 7.0425 13.5149 6.9075 13.6574ZM7.065 10.7849C7.0275 10.8749 6.975 10.9574 6.9075 11.0324C6.8325 11.0999 6.75 11.1524 6.66 11.1899C6.57 11.2274 6.4725 11.2499 6.375 11.2499C6.2775 11.2499 6.18 11.2274 6.09 11.1899C6 11.1524 5.9175 11.0999 5.8425 11.0324C5.775 10.9574 5.7225 10.8749 5.685 10.7849C5.6475 10.6949 5.625 10.5974 5.625 10.4999C5.625 10.4024 5.6475 10.3049 5.685 10.2149C5.7225 10.1249 5.775 10.0424 5.8425 9.96738C5.9175 9.89988 6 9.84738 6.09 9.80988C6.27 9.73488 6.48 9.73488 6.66 9.80988C6.75 9.84738 6.8325 9.89988 6.9075 9.96738C6.975 10.0424 7.0275 10.1249 7.065 10.2149C7.1025 10.3049 7.125 10.4024 7.125 10.4999C7.125 10.5974 7.1025 10.6949 7.065 10.7849ZM9.5325 11.0324C9.4575 11.0999 9.375 11.1524 9.285 11.1899C9.195 11.2274 9.0975 11.2499 9 11.2499C8.9025 11.2499 8.805 11.2274 8.715 11.1899C8.625 11.1524 8.5425 11.0999 8.4675 11.0324C8.3325 10.8899 8.25 10.6949 8.25 10.4999C8.25 10.3049 8.3325 10.1099 8.4675 9.96738C8.5425 9.89988 8.625 9.84738 8.715 9.80988C8.895 9.72738 9.105 9.72738 9.285 9.80988C9.375 9.84738 9.4575 9.89988 9.5325 9.96738C9.6675 10.1099 9.75 10.3049 9.75 10.4999C9.75 10.6949 9.6675 10.8899 9.5325 11.0324Z" fill="#17272E"/>
</svg>
