<svg width="48" height="48" viewBox="0 0 48 48" fill="none" xmlns="http://www.w3.org/2000/svg">
<path d="M14.4005 4.7998C10.4234 4.7998 7.19995 8.56059 7.19995 13.1998C7.19995 17.1718 9.56413 20.5005 12.7396 21.3741L11.5467 40.8045C11.5244 41.1128 11.5664 41.4223 11.6699 41.7136C11.7734 42.0048 11.9362 42.2714 12.148 42.4965C12.3598 42.7216 12.616 42.9004 12.9005 43.0214C13.1849 43.1424 13.4913 43.2031 13.8004 43.1997H15.0005C16.3206 43.1997 17.3335 42.1221 17.2543 40.8045L16.0614 21.3741C19.2368 20.4981 21.601 17.1718 21.601 13.1998C21.601 8.56059 18.3776 4.7998 14.4005 4.7998ZM38.6015 4.7998L36.6021 16.7998H35.102L34.1011 4.7998H33.1003L32.0994 16.7998H30.5993L28.5999 4.7998H27.5991V20.3997C27.5991 20.718 27.7255 21.0232 27.9506 21.2483C28.1756 21.4733 28.4809 21.5997 28.7992 21.5997H31.9242L30.7457 40.8045C30.7234 41.1128 30.7654 41.4223 30.8689 41.7136C30.9724 42.0048 31.1352 42.2714 31.347 42.4965C31.5588 42.7216 31.8151 42.9004 32.0995 43.0214C32.3839 43.1424 32.6904 43.2031 32.9995 43.1997H34.1996C35.5196 43.1997 36.5325 42.1221 36.4533 40.8045L35.2748 21.5997H38.3999C38.7181 21.5997 39.0234 21.4733 39.2485 21.2483C39.4735 21.0232 39.6 20.718 39.6 20.3997V4.7998H38.5991H38.6015Z" fill="#17272E"/>
</svg>
