<svg width="48" height="48" viewBox="0 0 48 48" fill="none" xmlns="http://www.w3.org/2000/svg">
<path d="M42.1801 13.96C40.4801 12.08 37.6401 11.14 33.5201 11.14H33.0401V11.06C33.0401 7.70004 33.0401 3.54004 25.5201 3.54004H22.4801C14.9601 3.54004 14.9601 7.72004 14.9601 11.06V11.16H14.4801C10.3401 11.16 7.52008 12.1 5.82008 13.98C3.84008 16.18 3.90007 19.14 4.10007 21.16L4.12007 21.3L4.29753 23.1633C4.31179 23.3131 4.3922 23.4481 4.51782 23.5309C4.93737 23.8074 5.92369 24.4509 6.48007 24.76C6.76007 24.94 7.06008 25.1 7.36007 25.26C10.7801 27.14 14.5401 28.4 18.3601 29.02C18.5401 30.9 19.3601 33.1 23.7401 33.1C28.1201 33.1 28.9801 30.92 29.1201 28.98C33.2001 28.32 37.1401 26.9 40.7001 24.82C40.8201 24.76 40.9001 24.7 41.0001 24.64C41.8564 24.156 42.7473 23.5508 43.5439 22.9694C43.6565 22.8872 43.7288 22.7613 43.7442 22.6228L43.8001 22.12L43.9001 21.18C43.9201 21.06 43.9201 20.96 43.9401 20.82C44.1001 18.8 44.0601 16.04 42.1801 13.96ZM26.1801 27.66C26.1801 29.78 26.1801 30.1 23.7201 30.1C21.2601 30.1 21.2601 29.72 21.2601 27.68V25.16H26.1801V27.66ZM17.8201 11.14V11.06C17.8201 7.66004 17.8201 6.40004 22.4801 6.40004H25.5201C30.1801 6.40004 30.1801 7.68004 30.1801 11.06V11.16H17.8201V11.14Z" fill="#17272E"/>
<path d="M42.5567 27.0796C42.9091 26.9088 43.3143 27.1892 43.2789 27.5792L42.4799 36.3799C42.0599 40.3799 40.4199 44.4599 31.6199 44.4599H16.3799C7.57993 44.4599 5.93993 40.3799 5.51993 36.3999L4.75922 28.0321C4.72418 27.6466 5.11944 27.3663 5.47102 27.5281C7.46011 28.4438 12.7176 30.8005 15.6166 31.4996C15.7817 31.5395 15.915 31.6566 15.9808 31.8132C17.1405 34.57 19.8183 36.0399 23.7399 36.0399C27.6227 36.0399 30.337 34.5135 31.4989 31.7534C31.5649 31.5967 31.6979 31.4796 31.8632 31.4398C34.9334 30.6989 40.4895 28.0809 42.5567 27.0796Z" fill="#17272E"/>
</svg>
